<?xml version="1.0" encoding="UTF-8"?>
<svg id="Layer_1" data-name="Layer 1" xmlns="http://www.w3.org/2000/svg" viewBox="0 0 324.47 85.01">
  <path d="M49.74,48.74l-11.06-1.91c-.71,2.1-2.03,4.02-3.96,5.78-1.93,1.76-4.8,2.64-8.62,2.64-3.44,0-6.32-.78-8.62-2.33-2.3-1.55-3.45-3.53-3.45-5.92,0-2.1.78-3.8,2.33-5.11,1.55-1.31,4.03-2.36,7.44-3.14l10.05-2.25c5.73-1.31,10.01-3.37,12.86-6.18,2.84-2.81,4.27-6.4,4.27-10.78,0-3.78-1.09-7.14-3.26-10.08-2.17-2.94-5.19-5.24-9.04-6.91C34.82.88,30.37.05,25.32.05c-7.04,0-12.77,1.52-17.18,4.55C3.72,7.63,1.01,11.9,0,17.4l11.74,1.8c.75-3.07,2.27-5.39,4.58-6.96,2.3-1.57,5.29-2.36,8.96-2.36,3.97,0,7.16.84,9.57,2.53,2.41,1.68,3.62,3.72,3.62,6.12,0,3.97-2.96,6.64-8.87,8.03l-10.61,2.36c-5.88,1.35-10.21,3.47-13,6.37-2.79,2.9-4.18,6.56-4.18,10.98,0,3.71,1.04,6.96,3.12,9.77,2.08,2.81,4.94,4.99,8.59,6.54,3.65,1.55,7.81,2.33,12.49,2.33,6.81,0,12.16-1.48,16.03-4.44,3.87-2.96,6.45-6.87,7.72-11.74h-.02Z"/>
  <path d="M77.82,0c-3.97,0-7.56.74-10.78,2.22s-5.77,3.64-7.64,6.49c-1.87,2.84-2.81,6.31-2.81,10.39,0,3.56.68,6.47,2.05,8.73,1.37,2.26,3.21,4.07,5.53,5.42,2.32,1.35,4.9,2.36,7.75,3.03,2.84.67,5.76,1.2,8.76,1.57,3.78.41,6.83.77,9.15,1.07s4.01.78,5.08,1.43,1.6,1.71,1.6,3.17v.28c0,3.56-1,6.31-3,8.25-2,1.95-4.97,2.92-8.9,2.92-3.93,0-7.31-.89-9.69-2.67-2.38-1.78-4.02-3.79-4.91-6.04l-11.51,2.64c1.38,3.82,3.4,6.9,6.04,9.24s5.67,4.05,9.1,5.14c3.43,1.09,7.01,1.63,10.75,1.63,2.51,0,5.17-.29,7.97-.87,2.81-.58,5.46-1.65,7.95-3.2,2.49-1.55,4.52-3.77,6.09-6.65,1.57-2.88,2.36-6.61,2.36-11.17V1.35s-11.96,0-11.96,0v8.59s-.45,0-.45,0c-.75-1.54-1.92-3.07-3.51-4.6-1.59-1.54-3.62-2.81-6.09-3.82S81.3,0,77.82,0ZM80.46,9.77c3.41,0,6.31.66,8.7,1.99,2.4,1.33,4.23,3.08,5.5,5.25s1.91,4.47,1.91,6.91v8.14c-.45-.41-1.29-.81-2.53-1.18s-2.64-.69-4.21-.95c-1.57-.26-3.11-.5-4.6-.7-1.5-.21-2.75-.37-3.76-.48-2.36-.34-4.51-.85-6.46-1.54-1.95-.69-3.51-1.7-4.69-3.03-1.18-1.33-1.77-3.08-1.77-5.25,0-3.03,1.12-5.32,3.37-6.85,2.25-1.54,5.09-2.3,8.54-2.3h0Z"/>
  <path d="M98.78,85.01h14.32s21.9-38.07,21.9-38.07h.9s21.78,38.07,21.78,38.07h14.43s-30.38-50.82-30.38-50.82V1.34s-12.63,0-12.63,0v32.85s-30.32,50.82-30.32,50.82Z"/>
  <path d="M199.14,41.94v-10.56s-37.17,0-37.17,0v10.56s37.17,0,37.17,0Z"/>
  <path d="M249.38,27.29v36.83s12.13,0,12.13,0V1.34s-11.9,0-11.9,0v10.89s-.67,0-.67,0c-1.5-3.33-3.82-6.12-6.96-8.37-3.14-2.25-7.08-3.35-11.79-3.31-4.04,0-7.61.88-10.7,2.64s-5.5,4.4-7.24,7.92c-1.74,3.52-2.61,7.88-2.61,13.08v39.93s12.13,0,12.13,0V25.6c0-4.23,1.2-7.62,3.59-10.16,2.39-2.55,5.48-3.8,9.26-3.76,2.28,0,4.56.56,6.82,1.68,2.26,1.12,4.16,2.84,5.67,5.17,1.52,2.32,2.27,5.24,2.27,8.76Z"/>
  <path d="M283.71,38.57V1.34s-12.13,0-12.13,0v83.67s11.96,0,11.96,0v-31.22s.84,0,.84,0c1.46,3.41,3.7,6.11,6.71,8.11,3.01,2,6.95,3,11.82,3,4.3,0,8.07-.88,11.29-2.64,3.22-1.76,5.74-4.4,7.55-7.92,1.82-3.52,2.72-7.9,2.72-13.14V1.33s-12.24,0-12.24,0v38.41c0,4.64-1.19,8.23-3.57,10.78s-5.68,3.82-9.91,3.82c-2.92,0-5.5-.63-7.75-1.88-2.25-1.25-4.02-3.04-5.33-5.36s-1.97-5.17-1.97-8.54h.01Z"/>
</svg>