<?xml version="1.0" encoding="UTF-8"?>
<svg id="Layer_1" data-name="Layer 1" xmlns="http://www.w3.org/2000/svg" viewBox="0 0 324.48 85.01">
  <path d="M49.75,36.27l-11.06,1.91c-.71-2.1-2.03-4.02-3.96-5.78-1.93-1.76-4.8-2.64-8.62-2.64-3.44,0-6.32.78-8.62,2.33-2.3,1.55-3.45,3.53-3.45,5.92,0,2.1.78,3.8,2.33,5.11,1.55,1.31,4.03,2.36,7.44,3.14l10.05,2.25c5.73,1.31,10.01,3.37,12.86,6.18,2.84,2.81,4.27,6.4,4.27,10.78,0,3.78-1.09,7.14-3.26,10.08-2.17,2.94-5.19,5.24-9.04,6.91-3.86,1.67-8.31,2.5-13.36,2.5-7.04,0-12.77-1.52-17.18-4.55-4.42-3.03-7.13-7.3-8.14-12.8l11.74-1.8c.75,3.07,2.27,5.39,4.58,6.96,2.3,1.57,5.29,2.36,8.96,2.36,3.97,0,7.16-.84,9.57-2.53,2.41-1.68,3.62-3.72,3.62-6.12,0-3.97-2.96-6.64-8.87-8.03l-10.61-2.36c-5.88-1.35-10.21-3.47-13-6.37-2.79-2.9-4.18-6.56-4.18-10.98,0-3.71,1.04-6.96,3.12-9.77,2.08-2.81,4.94-4.99,8.59-6.54,3.65-1.55,7.81-2.33,12.49-2.33,6.81,0,12.16,1.48,16.03,4.44,3.87,2.96,6.45,6.87,7.72,11.74Z"/>
  <path d="M77.83,85.01c-3.97,0-7.56-.74-10.78-2.22-3.22-1.48-5.77-3.64-7.64-6.49-1.87-2.84-2.81-6.31-2.81-10.39,0-3.56.68-6.47,2.05-8.73,1.37-2.26,3.21-4.07,5.53-5.42,2.32-1.35,4.9-2.36,7.75-3.03,2.84-.67,5.76-1.2,8.76-1.57,3.78-.41,6.83-.77,9.15-1.07,2.32-.3,4.01-.78,5.08-1.43,1.07-.65,1.6-1.71,1.6-3.17v-.28c0-3.56-1-6.31-3-8.25-2-1.95-4.97-2.92-8.9-2.92s-7.31.89-9.69,2.67c-2.38,1.78-4.02,3.79-4.91,6.04l-11.51-2.64c1.38-3.82,3.4-6.9,6.04-9.24,2.64-2.34,5.67-4.05,9.1-5.14,3.43-1.09,7.01-1.63,10.75-1.63,2.51,0,5.17.29,7.97.87,2.81.58,5.46,1.65,7.95,3.2,2.49,1.55,4.52,3.77,6.09,6.65,1.57,2.88,2.36,6.61,2.36,11.17v41.67h-11.96v-8.59h-.45c-.75,1.54-1.92,3.07-3.51,4.6-1.59,1.54-3.62,2.81-6.09,3.82s-5.45,1.52-8.93,1.52ZM80.47,75.24c3.41,0,6.31-.66,8.7-1.99,2.4-1.33,4.23-3.08,5.5-5.25,1.27-2.17,1.91-4.47,1.91-6.91v-8.14c-.45.41-1.29.81-2.53,1.18-1.24.37-2.64.69-4.21.95-1.57.26-3.11.5-4.6.7-1.5.21-2.75.37-3.76.48-2.36.34-4.51.85-6.46,1.54-1.95.69-3.51,1.7-4.69,3.03-1.18,1.33-1.77,3.08-1.77,5.25,0,3.03,1.12,5.32,3.37,6.85,2.25,1.54,5.09,2.3,8.54,2.3Z"/>
  <path d="M98.79,0h14.32l21.9,38.07h.9L157.69,0h14.43l-30.38,50.82v32.85h-12.63v-32.85L98.79,0Z"/>
  <path d="M199.15,43.07v10.56h-37.17v-10.56h37.17Z"/>
  <path d="M249.39,57.72V20.89h12.13v62.78h-11.9v-10.89h-.67c-1.5,3.33-3.82,6.12-6.96,8.37s-7.08,3.35-11.79,3.31c-4.04,0-7.61-.88-10.7-2.64-3.09-1.76-5.5-4.4-7.24-7.92-1.74-3.52-2.61-7.88-2.61-13.08V20.89h12.13v38.52c0,4.23,1.2,7.62,3.59,10.16,2.39,2.55,5.48,3.8,9.26,3.76,2.28,0,4.56-.56,6.82-1.68,2.26-1.12,4.16-2.84,5.67-5.17,1.52-2.32,2.27-5.24,2.27-8.76Z"/>
  <path d="M283.72,46.44v37.23h-12.13V0h11.96v31.22h.84c1.46-3.41,3.7-6.11,6.71-8.11,3.01-2,6.95-3,11.82-3,4.3,0,8.07.88,11.29,2.64,3.22,1.76,5.74,4.4,7.55,7.92,1.82,3.52,2.72,7.9,2.72,13.14v39.87h-12.24v-38.41c0-4.64-1.19-8.23-3.57-10.78-2.38-2.55-5.68-3.82-9.91-3.82-2.92,0-5.5.63-7.75,1.88-2.25,1.25-4.02,3.04-5.33,5.36-1.31,2.32-1.97,5.17-1.97,8.54Z"/>
</svg>